# xmcd CD database file
#
# Track frame offsets:
#	225
#	15997
#	32565
#	48310
#	65021
#	81308
#
# Disc length: 1305 seconds
#
# Revision: 0
# Processed by: cddbd v1.5.2PL0 Copyright (c) Steve Scherf et al.
# Submitted via: CDex 1.70beta2
#
DISCID=43051606
DTITLE=UC (May 04) - USA - Universal Country May 2004
DYEAR=2004
DGENRE=Country
TTITLE0=Doc Walker - North Dakota Boy
TTITLE1=Paul Brandt - Leavin'
TTITLE2=Jos Turner - What It Ain't
TTITLE3=Jedd Hughes - High Lonesome
TTITLE4=Deric Ruttan - I Saved Everything
TTITLE5=Scotty Emerick - The Watch
EXTD=YEAR: 2004
EXTT0=
EXTT1=
EXTT2=
EXTT3=
EXTT4=
EXTT5=
PLAYORDER=
